<?xml version="1.0" standalone="no"?>
<!DOCTYPE svg PUBLIC "-//W3C//DTD SVG 20010904//EN"
 "http://www.w3.org/TR/2001/REC-SVG-20010904/DTD/svg10.dtd">
<svg version="1.0" xmlns="http://www.w3.org/2000/svg"
 width="1024.000000pt" height="1024.000000pt" viewBox="0 0 1024.000000 1024.000000"
 preserveAspectRatio="xMidYMid meet">

<g transform="translate(0.000000,1024.000000) scale(0.100000,-0.100000)"
fill="#000000" stroke="none">
<path d="M5032 8033 c-31 -15 -74 -97 -542 -1034 -280 -559 -597 -1185 -703
-1391 -357 -685 -762 -1457 -961 -1833 -82 -153 -105 -206 -101 -225 14 -57
-10 -55 571 -58 508 -2 537 -2 578 17 41 18 52 32 185 254 150 250 162 281
119 311 -19 14 -65 16 -296 16 l-273 0 19 28 c27 40 325 592 537 997 37 72 94
177 125 235 144 263 528 1006 749 1448 l101 202 47 -87 c25 -49 97 -187 159
-307 63 -121 121 -227 130 -238 20 -22 77 -24 94 -3 39 46 260 432 260 453 0
21 -189 384 -573 1100 -56 105 -87 132 -152 132 -22 0 -55 -8 -73 -17z"/>
<path d="M5903 6488 c-34 -37 -523 -1026 -523 -1058 0 -58 14 -60 332 -60
l288 0 23 -37 c13 -21 95 -175 182 -343 87 -168 220 -422 296 -565 76 -143
250 -476 388 -740 l250 -480 -442 -3 c-243 -1 -443 1 -445 5 -3 11 -249 437
-426 738 -84 143 -188 321 -231 395 -43 74 -87 146 -99 159 -43 48 -65 51
-376 51 -318 0 -340 -3 -377 -56 -36 -51 -638 -1070 -1050 -1776 l-75 -128
-424 0 -424 0 29 53 c15 28 66 122 111 207 46 85 110 201 142 258 63 112 69
141 37 173 -19 19 -29 20 -257 17 -225 -3 -239 -4 -268 -25 -23 -16 -95 -143
-297 -521 -147 -275 -267 -509 -267 -521 0 -12 11 -33 25 -47 l24 -24 974 2
974 3 34 26 c34 26 61 71 442 734 253 438 449 777 590 1018 42 72 73 115 79
109 5 -5 39 -62 77 -128 125 -220 253 -438 326 -559 39 -66 127 -217 195 -335
68 -118 136 -234 152 -257 56 -83 3 -78 808 -81 l715 -3 51 -99 51 -100 -701
0 c-619 0 -704 -2 -724 -16 -37 -26 -28 -68 36 -173 93 -153 -45 -136 1098
-139 970 -2 984 -2 1004 18 41 41 37 62 -38 213 -39 78 -131 255 -205 392
-125 234 -269 506 -392 740 -314 596 -496 939 -760 1435 -172 322 -365 684
-430 805 -313 588 -380 710 -397 727 -26 26 -80 23 -105 -4z"/>
<path d="M4528 5140 c-46 -14 -85 -48 -108 -96 -47 -96 -7 -224 83 -265 40
-18 75 -19 661 -19 597 0 621 1 660 20 41 19 96 89 96 120 0 8 -9 -4 -19 -26
-10 -23 -36 -54 -57 -70 l-37 -29 -616 -3 c-412 -2 -628 0 -652 7 -107 32
-158 151 -110 256 22 48 44 69 94 90 31 13 119 15 644 15 576 0 610 -1 650
-19 53 -25 93 -83 103 -153 7 -50 8 -50 9 -13 1 73 -55 159 -122 184 -34 13
-1237 14 -1279 1z"/>
</g>
</svg>
